# xmcd
#
# Track frame offsets: 
#        150
#        19019
#        34149
#        49209
#        67425
#        81377
#        110238
#        127673
#        148194
#        163769
#        178279
#        200759
#        215192
#        252571
#        269275
#        285596
#        306222
#        323163
#        327711
#
# Disc length: 4627 seconds
#
# Revision: 0
# Processed by: cddbd v1.4b42PL1 Copyright (c) Steve Scherf et al.
# Submitted via: ExactAudioCopy v0.90a11
#
DISCID=40121113
DTITLE=J.J. Cale - Variety Playhouse - Atlanta, GA - 28.8.96
DYEAR=1900
DGENRE=
TTITLE0=Mama Don't
TTITLE1=If I Had Me A Rocket
TTITLE2=The Old Man
TTITLE3=Living Here Too
TTITLE4=Closer To You
TTITLE5=Call Me The Breeze
TTITLE6=Christine Lakeland - Someone To Love Me
TTITLE7=Rocky Frisco - Feel So Bad
TTITLE8=Cajun Moon
TTITLE9=Thirteen Days
TTITLE10=Crazy Mama
TTITLE11=Magnolia
TTITLE12=After Midnight
TTITLE13=Roll On
TTITLE14=Sensitive Kind
TTITLE15=Bringing It Back
TTITLE16=Cocaine
TTITLE17=Devil In Disguise (Broken)
TTITLE18=Anyway The Wind Blows
EXTD=
EXTT0=
EXTT1=
EXTT2=
EXTT3=
EXTT4=
EXTT5=
EXTT6=
EXTT7=
EXTT8=
EXTT9=
EXTT10=
EXTT11=
EXTT12=
EXTT13=
EXTT14=
EXTT15=
EXTT16=
EXTT17=
EXTT18=
PLAYORDER=
